<?xml version="1.0" encoding="iso-8859-1"?>
<!-- Generator: Adobe Illustrator 16.0.0, SVG Export Plug-In . SVG Version: 6.00 Build 0)  -->
<!DOCTYPE svg PUBLIC "-//W3C//DTD SVG 1.1//EN" "http://www.w3.org/Graphics/SVG/1.1/DTD/svg11.dtd">
<svg version="1.1" id="&#x5716;&#x5C64;_1" xmlns="http://www.w3.org/2000/svg" xmlns:xlink="http://www.w3.org/1999/xlink" x="0px"
	 y="0px" width="1200px" height="700px" viewBox="0 0 1200 700" style="enable-background:new 0 0 1200 700;" xml:space="preserve">
<g>
	<polygon style="fill:#F1CD6C;" points="509.775,0 600.541,349.995 545.759,0 	"/>
	<polygon style="fill:#F1CD6C;" points="431.823,0 600.541,349.995 470.635,0 	"/>
	<polygon style="fill:#F1CD6C;" points="344.229,0 600.541,349.995 388.458,0 	"/>
	<polygon style="fill:#F1CD6C;" points="239.628,0 600.541,349.995 293.297,0 	"/>
	<polygon style="fill:#F1CD6C;" points="105.25,0 600.541,349.995 175.556,0 	"/>
	<polygon style="fill:#F1CD6C;" points="0.821,0 0.821,43.615 600.541,349.995 17.324,0 	"/>
	<polygon style="fill:#F1CD6C;" points="0.821,138.509 600.541,349.995 0.821,94.403 	"/>
	<polygon style="fill:#F1CD6C;" points="0.821,220.455 600.541,349.995 0.821,181.751 	"/>
	<polygon style="fill:#F1CD6C;" points="0.821,295.367 600.541,349.995 0.821,259.484 	"/>
	<polygon style="fill:#F1CD6C;" points="0.821,367.497 600.541,349.995 0.821,332.495 	"/>
	<polygon style="fill:#F1CD6C;" points="1200,332.502 600.541,349.995 1200,367.489 	"/>
	<polygon style="fill:#F1CD6C;" points="1200,259.524 600.541,349.995 1200,295.391 	"/>
	<polygon style="fill:#F1CD6C;" points="1200,181.825 600.541,349.995 1200,220.511 	"/>
	<polygon style="fill:#F1CD6C;" points="1200,94.514 600.541,349.995 1200,138.601 	"/>
	<polygon style="fill:#F1CD6C;" points="600.541,349.995 1200,43.75 1200,0 1183.758,0 	"/>
	<polygon style="fill:#F1CD6C;" points="1025.525,0 600.541,349.995 1095.829,0 	"/>
	<polygon style="fill:#F1CD6C;" points="907.784,0 600.541,349.995 961.455,0 	"/>
	<polygon style="fill:#F1CD6C;" points="812.625,0 600.541,349.995 856.853,0 	"/>
	<polygon style="fill:#F1CD6C;" points="730.446,0 600.541,349.995 769.259,0 	"/>
	<polygon style="fill:#F1CD6C;" points="655.323,0 600.541,349.995 691.308,0 	"/>
	<polygon style="fill:#F1CD6C;" points="582.991,0 600.541,349.995 618.092,0 	"/>
	<polygon style="fill:#F1CD6C;" points="508.954,700 599.719,350.004 544.938,700 	"/>
	<polygon style="fill:#F1CD6C;" points="431.002,700 599.719,350.004 469.814,700 	"/>
	<polygon style="fill:#F1CD6C;" points="343.408,700 599.719,350.004 387.638,700 	"/>
	<polygon style="fill:#F1CD6C;" points="238.807,700 599.719,350.004 292.477,700 	"/>
	<polygon style="fill:#F1CD6C;" points="104.43,700 599.719,350.004 174.735,700 	"/>
	<polygon style="fill:#F1CD6C;" points="0,700 0,656.386 599.719,350.004 16.503,700 	"/>
	<polygon style="fill:#F1CD6C;" points="0,561.489 599.719,350.004 0,605.597 	"/>
	<polygon style="fill:#F1CD6C;" points="0,479.544 599.719,350.004 0,518.248 	"/>
	<polygon style="fill:#F1CD6C;" points="0,404.631 599.719,350.004 0,440.514 	"/>
	<polygon style="fill:#F1CD6C;" points="1199.18,440.475 599.719,350.004 1199.18,404.607 	"/>
	<polygon style="fill:#F1CD6C;" points="1199.18,518.173 599.719,350.004 1199.18,479.488 	"/>
	<polygon style="fill:#F1CD6C;" points="1199.18,605.485 599.719,350.004 1199.18,561.397 	"/>
	<polygon style="fill:#F1CD6C;" points="599.719,350.004 1199.18,656.25 1199.18,700 1182.937,700 	"/>
	<polygon style="fill:#F1CD6C;" points="1024.705,700 599.719,350.004 1095.008,700 	"/>
	<polygon style="fill:#F1CD6C;" points="906.964,700 599.719,350.004 960.634,700 	"/>
	<polygon style="fill:#F1CD6C;" points="811.804,700 599.719,350.004 856.032,700 	"/>
	<polygon style="fill:#F1CD6C;" points="729.625,700 599.719,350.004 768.438,700 	"/>
	<polygon style="fill:#F1CD6C;" points="654.502,700 599.719,350.004 690.487,700 	"/>
	<polygon style="fill:#F1CD6C;" points="582.169,700 599.719,350.004 617.271,700 	"/>
</g>
</svg>
